<?xml version="1.0" encoding="utf-8"?>
<!-- Generator: Adobe Illustrator 21.0.0, SVG Export Plug-In . SVG Version: 6.00 Build 0)  -->
<svg version="1.1" id="图层_1" xmlns="http://www.w3.org/2000/svg" xmlns:xlink="http://www.w3.org/1999/xlink" x="0px" y="0px"
	 viewBox="0 0 30 30" style="enable-background:new 0 0 30 30;" xml:space="preserve">
<style type="text/css">
	.st0{fill:#FC6760;}
</style>
<path class="st0" d="M15,2.8C8.5,2.8,3.2,8.1,3.2,14.7S8.5,26.5,15,26.5c6.5,0,11.8-5.3,11.8-11.8C26.8,8.2,21.5,2.8,15,2.8z
	 M21.6,15.6h-5.7v5.7c0,0.5-0.4,0.9-0.9,0.9c-0.5,0-0.9-0.4-0.9-0.9v-5.7H8.4c-0.5,0-0.9-0.4-0.9-0.9s0.4-0.9,0.9-0.9h5.7V8.1
	c0-0.5,0.4-0.9,0.9-0.9c0.5,0,0.9,0.4,0.9,0.9v5.7h5.7c0.5,0,0.9,0.4,0.9,0.9C22.5,15.1,22.1,15.6,21.6,15.6L21.6,15.6z"/>
</svg>
