<?xml version="1.0" encoding="utf-8"?>
<!-- Generator: Adobe Illustrator 21.0.0, SVG Export Plug-In . SVG Version: 6.00 Build 0)  -->
<svg version="1.0" id="图层_1" xmlns="http://www.w3.org/2000/svg" xmlns:xlink="http://www.w3.org/1999/xlink" x="0px" y="0px"
	 viewBox="0 0 46 40" enable-background="new 0 0 46 40" xml:space="preserve">
<g>
	<g>
		<path fill="#585858" d="M37.631,39.934l-4.444-3.686c-3.478,0.562-6.861-0.072-9.66-1.662l0.888-1.563
			c2.545,1.446,5.656,1.989,8.859,1.385l0.415-0.079l2.145,1.779v-2.452l0.513-0.244c3.445-1.638,5.585-4.671,5.585-7.915
			c0-1.437-0.406-2.822-1.206-4.116l1.528-0.945c0.978,1.582,1.474,3.285,1.474,5.061c0,3.776-2.322,7.287-6.098,9.281V39.934z"/>
	</g>
	<g>
		<path fill="#585858" d="M11.708,37.452v-7.19c-5.799-2.957-9.377-8.267-9.377-13.977c0-9.015,8.728-16.35,19.455-16.35
			s19.455,7.335,19.455,16.35c0,9.016-8.728,16.351-19.455,16.351c-1.267,0-2.565-0.113-3.867-0.336L11.708,37.452z M21.787,1.731
			c-9.737,0-17.659,6.529-17.659,14.553c0,5.176,3.397,10.007,8.864,12.606l0.513,0.244v4.493l3.915-3.247l0.415,0.079
			c1.331,0.252,2.661,0.379,3.952,0.379c9.737,0,17.659-6.529,17.659-14.554S31.524,1.731,21.787,1.731z"/>
	</g>
	<circle fill="#585858" cx="13.458" cy="17.393" r="2.428"/>
	<circle fill="#585858" cx="21.747" cy="17.393" r="2.428"/>
	<circle fill="#585858" cx="30.035" cy="17.393" r="2.428"/>
</g>
</svg>
