<?xml version="1.0" encoding="utf-8"?>
<!-- Generator: Adobe Illustrator 21.0.0, SVG Export Plug-In . SVG Version: 6.00 Build 0)  -->
<svg version="1.0" id="图层_1" xmlns="http://www.w3.org/2000/svg" xmlns:xlink="http://www.w3.org/1999/xlink" x="0px" y="0px"
	 viewBox="0 0 46 40" enable-background="new 0 0 46 40" xml:space="preserve">
<g>
	<path fill="#FF6560" d="M43.13,21.462c-2.218,7.428-9.741,13.087-18.993,13.98c2.098,1.191,4.631,1.89,7.362,1.89
		c0.999,0,1.969-0.102,2.904-0.278l3.569,2.96v-4.116c3.946-1.876,6.611-5.406,6.611-9.46C44.583,24.643,44.053,22.955,43.13,21.462
		z"/>
	<path fill="#FF6560" d="M21.706,0.013c-11.111,0-20.118,7.5-20.118,16.752c0,6.234,4.098,11.661,10.165,14.546v6.328l5.487-4.551
		c1.438,0.272,2.928,0.428,4.465,0.428c11.111,0,20.118-7.5,20.118-16.752S32.816,0.013,21.706,0.013z M13.507,20.027
		c-1.395,0-2.526-1.131-2.526-2.526c0-1.395,1.131-2.526,2.526-2.526s2.526,1.131,2.526,2.526
		C16.033,18.896,14.902,20.027,13.507,20.027z M21.706,20.027c-1.395,0-2.526-1.131-2.526-2.526c0-1.395,1.131-2.526,2.526-2.526
		s2.526,1.131,2.526,2.526C24.232,18.896,23.101,20.027,21.706,20.027z M30.187,20.027c-1.395,0-2.526-1.131-2.526-2.526
		c0-1.395,1.131-2.526,2.526-2.526s2.526,1.131,2.526,2.526C32.714,18.896,31.583,20.027,30.187,20.027z"/>
</g>
</svg>
