<?xml version="1.0" standalone="no"?><!DOCTYPE svg PUBLIC "-//W3C//DTD SVG 1.1//EN" "http://www.w3.org/Graphics/SVG/1.1/DTD/svg11.dtd"><svg class="icon" width="200px" height="200.00px" viewBox="0 0 1024 1024" version="1.1" xmlns="http://www.w3.org/2000/svg"><path fill="#ffffff" d="M515.107 203.895c-151.36 0-274.439 123.083-274.439 274.439 0 105.339 59.879 200.703 154.126 246.718v118.645c0 33.266 19.964 62.1 48.795 74.849v25.504c0 28.832 23.283 52.117 52.115 52.117h39.92c28.829 0 52.117-23.284 52.117-52.117v-25.5c28.828-12.751 48.789-41.584 48.789-74.852v-118.645c93.695-46.015 154.127-141.378 154.127-246.718-1.108-151.359-124.19-274.443-275.548-274.443v0zM535.061 957.361h-39.918c-7.203 0-13.308-6.102-13.308-13.307v-18.299h66.538v18.299c0 7.204-6.102 13.307-13.312 13.307v0zM553.362 886.945h-76.512c-23.836 0-43.247-19.403-43.247-43.247v-46.569h163.561v46.569c-0.557 23.843-19.964 43.247-43.803 43.247v0zM515.107 604.19l-41.584-75.954h82.609l-41.026 75.954zM608.25 694.56l-11.641 4.99v58.772h-62.098v-114.211c3.328-2.221 5.548-5.545 7.763-8.869l56.551-104.234c4.989-8.316 4.434-18.849-0.553-27.166-5.542-8.871-15.526-14.419-26.612-14.419h-113.657c-11.091 0-21.068 5.541-26.611 14.419-4.991 8.316-5.547 18.294-0.554 27.166l57.108 104.786c2.214 3.322 4.434 6.65 7.759 8.871v113.657h-62.096v-58.772l-11.643-4.99c-86.487-37.141-141.93-122.527-141.93-216.222 0-129.738 105.894-235.63 235.63-235.63 129.733 0 235.632 105.894 235.632 235.63-0.553 93.695-56.551 178.528-143.042 216.222v0zM47.12 423.493h102.928v39.75h-102.928v-39.75zM254.010 234.018l-72.78-72.78 28.112-28.105 72.78 72.78-28.112 28.105zM742.348 205.914l72.78-72.78 28.106 28.105-72.779 72.78-28.107-28.105zM873.369 423.493h102.927v39.75h-102.927v-39.75zM491.831 27.763h39.75v102.927h-39.75v-102.927zM491.831 27.763z" /></svg>