<?xml version="1.0" encoding="utf-8"?>
<!-- Generator: Adobe Illustrator 21.0.0, SVG Export Plug-In . SVG Version: 6.00 Build 0)  -->
<svg version="1.0" id="图层_1" xmlns="http://www.w3.org/2000/svg" xmlns:xlink="http://www.w3.org/1999/xlink" x="0px" y="0px"
	 viewBox="0 0 40 40" enable-background="new 0 0 40 40" xml:space="preserve">
<path fill="#FC6760" d="M36.82,16.072l-0.294-0.055l-0.073-0.29c-1.896-7.54-8.657-12.805-16.442-12.805
	c-7.789,0-14.55,5.271-16.442,12.818l-0.071,0.282l-0.285,0.061c-1.783,0.383-3.077,1.984-3.077,3.807s1.294,3.423,3.077,3.806
	l0.285,0.061L3.57,24.04c1.892,7.547,8.653,12.818,16.442,12.818s14.55-5.271,16.442-12.818l0.071-0.282l0.285-0.061
	c1.783-0.383,3.077-1.984,3.077-3.806C39.886,17.923,38.683,16.424,36.82,16.072z M35.945,21.804l-0.107-0.012
	c-0.55-0.058-0.992,0.286-1.087,0.803c-1.298,7.122-7.497,12.293-14.74,12.293S6.57,29.717,5.272,22.594
	c-0.08-0.434-0.572-0.788-1.098-0.788l-0.103,0.003c-0.001,0-0.003,0-0.004,0c-1.1,0-1.96-0.861-1.96-1.918
	c0-1.059,0.849-1.921,1.893-1.921l0.185,0.019c0.542,0.054,0.991-0.292,1.086-0.803c0.812-4.454,3.564-8.262,7.55-10.446l0.53-0.29
	L13.5,7.034c0.395,1.562,2.132,6.684,7.853,6.994c0.496,0,0.886-0.297,1.005-0.722c0,0,0.725-2.502,2.71-3.07
	c0.521-0.15,0.825-0.698,0.677-1.222c-0.149-0.52-0.696-0.826-1.22-0.676c-1.917,0.547-3.03,2.11-3.627,3.325l-0.161,0.328
	l-0.357-0.077c-3.657-0.787-4.763-4.336-5.069-5.826l-0.085-0.416l0.406-0.125c1.441-0.441,2.914-0.665,4.378-0.665
	c7.243,0,13.442,5.17,14.74,12.294c0.094,0.508,0.535,0.851,1.069,0.803c0.014-0.001,0.091-0.01,0.126-0.016
	c1.268,0.012,1.969,0.73,1.969,1.913c0,1.066-0.849,1.934-1.893,1.934h-0.004"/>
<g>
	<path fill="#FC6760" d="M24.838,17.303c0,0.341,0.132,0.662,0.373,0.903c0.241,0.241,0.561,0.374,0.902,0.374c0,0,0,0,0.001,0
		c0.341,0,0.661-0.132,0.902-0.373c0.241-0.241,0.374-0.561,0.374-0.902c0-0.342-0.132-0.663-0.373-0.905
		c-0.241-0.241-0.561-0.374-0.902-0.374c0,0-0.001,0-0.001,0c-0.341,0-0.66,0.132-0.901,0.373c-0.241,0.241-0.374,0.561-0.374,0.901
		"/>
	<path fill="#FC6760" d="M13.909,18.58c0.341,0,0.661-0.132,0.902-0.373c0.241-0.241,0.374-0.561,0.374-0.902
		c0-0.705-0.572-1.278-1.275-1.279c0,0-0.001,0-0.001,0c-0.341,0-0.66,0.132-0.901,0.373c-0.241,0.241-0.374,0.561-0.374,0.901
		v0.003c0,0.341,0.132,0.661,0.373,0.902C13.247,18.447,13.568,18.58,13.909,18.58C13.909,18.58,13.909,18.58,13.909,18.58z"/>
	<path fill="#FC6760" d="M23.639,23.909l-0.006,0.006c-0.189,0.187-1.251,1.12-3.62,1.12c-2.43,0-3.504-1.003-3.618-1.117
		c-0.205-0.224-0.476-0.336-0.746-0.336c-0.23,0-0.458,0.081-0.646,0.244c-0.407,0.355-0.448,0.98-0.09,1.393
		c0.064,0.074,1.578,1.787,5.1,1.787c3.422,0,4.941-1.607,5.103-1.79c0.343-0.394,0.305-0.992-0.09-1.359
		C24.637,23.501,24.015,23.523,23.639,23.909z"/>
</g>
</svg>
