<?xml version="1.0" encoding="utf-8"?>
<!-- Generator: Adobe Illustrator 21.0.0, SVG Export Plug-In . SVG Version: 6.00 Build 0)  -->
<svg version="1.0" id="图层_1" xmlns="http://www.w3.org/2000/svg" xmlns:xlink="http://www.w3.org/1999/xlink" x="0px" y="0px"
	 viewBox="0 0 40 40" enable-background="new 0 0 40 40" xml:space="preserve">
<g>
	<path fill="#FC6760" d="M2.44,36.576c0,1.801,1.358,3.158,3.158,3.158h28.709c1.801,0,3.158-1.358,3.158-3.158
		c0-6.068-4.129-11.32-10.041-12.77l-0.283-0.069l0.217-0.195c2.245-2.021,3.482-4.843,3.482-7.946V3.008
		c0-0.352-0.169-0.75-0.546-0.844c-1.83-0.703-5.581-1.872-10.342-1.872c-5.1,0-8.898,1.357-10.328,1.868
		c-0.371,0.187-0.56,0.467-0.56,0.849v12.146c0,3.092,1.278,6.073,3.599,8.394l0.198,0.198l-0.273,0.062
		C6.709,25.138,2.44,30.509,2.44,36.576z M5.599,37.723c-0.068,0.012-0.136,0.018-0.203,0.018c-0.249,0-0.486-0.081-0.67-0.236
		c-0.249-0.211-0.386-0.541-0.386-0.929c0-4.8,3.016-9.03,7.504-10.526l0.314-0.105l-1.556,3.951
		c-0.287,0.767-0.136,1.823,0.711,2.352l3.764,2.766l3.447,2.708H5.599z M28.177,26.161c4.486,1.611,7.5,5.84,7.5,10.525
		c-0.136,0.699-0.685,1.148-1.369,1.148H23.736l-0.789-1.183l1.992-1.523l3.757-2.762c0.711-0.508,1.026-1.544,0.72-2.361
		l-1.559-3.959L28.177,26.161z M27.65,30.663l-3.849,2.943l-1.891,1.537l-0.709-0.993l4.856-7.285L27.65,30.663z M20.068,32.322
		l-5.013-7.092l0.55,0.275c1.15,0.575,2.353,0.867,3.575,0.867h0.773c1.566,0,3.069-0.338,4.348-0.978l0.516-0.258L20.068,32.322z
		 M11.076,15.264v-0.066l-0.007-0.176l-0.003-0.123c1.941-0.715,4.974-1.666,8.887-1.666c1.023,0,1.96,0.094,2.953,0.194
		l0.265,0.027c0.25,0.05,0.524-0.027,0.73-0.195c0.203-0.166,0.315-0.395,0.315-0.644c0.05-0.265-0.026-0.54-0.195-0.746
		c-0.166-0.203-0.395-0.315-0.644-0.315c-1.083-0.107-2.315-0.221-3.423-0.221c-3.658,0-6.795,0.836-8.783,1.537l-0.206,0.072V3.669
		l0.106-0.035c5.746-1.917,12.019-1.917,17.765,0l0.106,0.035v9.269l-0.203-0.067c-0.076-0.026-0.157-0.051-0.244-0.077
		c-0.285-0.088-0.641-0.197-0.991-0.373c-0.214-0.086-0.47-0.068-0.688,0.054c-0.224,0.126-0.371,0.341-0.416,0.606
		c-0.1,0.259-0.082,0.515,0.04,0.732c0.126,0.224,0.341,0.371,0.606,0.416l0.059,0.018c0.641,0.214,1.304,0.435,1.85,0.654
		l0.097,0.039v0.656c0,4.956-4.032,8.988-8.988,8.988h-0.552C14.776,24.246,11.076,20.152,11.076,15.264z M13.845,26.866
		l6.556,9.547l-0.467,0.234l-3.831-3.042l-3.847-2.828L13.845,26.866z"/>
	<path fill="#FC6760" d="M22.271,5.959H20.95V4.638c0-0.551-0.446-0.997-0.997-0.997h0c-0.551,0-0.997,0.446-0.997,0.997v1.321
		h-1.321c-0.551,0-0.997,0.446-0.997,0.997s0.446,0.997,0.997,0.997h1.321v1.321c0,0.551,0.446,0.997,0.997,0.997h0
		c0.551,0,0.997-0.446,0.997-0.997V7.953h1.321c0.551,0,0.997-0.446,0.997-0.997S22.822,5.959,22.271,5.959z"/>
</g>
</svg>
