<?xml version="1.0" encoding="utf-8"?>
<!-- Generator: Adobe Illustrator 21.0.0, SVG Export Plug-In . SVG Version: 6.00 Build 0)  -->
<svg version="1.0" id="图层_1" xmlns="http://www.w3.org/2000/svg" xmlns:xlink="http://www.w3.org/1999/xlink" x="0px" y="0px"
	 viewBox="0 0 40 40" enable-background="new 0 0 40 40" xml:space="preserve">
<path fill="#FC6760" d="M5.604,36.994C6.35,37.74,7.342,38.15,8.397,38.15h23.104c1.056,0,2.047-0.411,2.793-1.156
	c0.735-0.735,1.157-1.753,1.157-2.792v-12.39h0.25c1.441,0,2.614-1.173,2.614-2.614v-7.739c0-1.136-0.924-2.06-2.06-2.06h-7.473
	l0.219-0.376c0.474-0.812,0.725-1.739,0.727-2.679c0-2.415-1.663-4.86-4.841-4.86c-1.477,0-2.731,0.514-3.727,1.527
	c-0.489,0.495-0.918,1.133-1.276,1.897l-0.229,0.489l-0.225-0.491c-0.346-0.756-0.766-1.393-1.25-1.894
	c-0.991-1.014-2.24-1.528-3.712-1.528c-1.887,0-3.022,0.838-3.642,1.541c-0.773,0.877-1.2,2.057-1.2,3.32
	c0.002,0.939,0.253,1.865,0.727,2.678l0.219,0.376H4.197c-1.441,0-2.614,1.173-2.614,2.614v7.183c0,1.441,1.172,2.614,2.614,2.614
	h0.25v12.392C4.447,35.256,4.858,36.248,5.604,36.994z M15.64,36.219H8.525c-1.183,0-2.145-0.962-2.146-2.145V21.812h9.26V36.219z
	 M33.518,34.074c0,1.183-0.963,2.145-2.145,2.145h-7.114V21.812h9.259V34.074z M34.484,11.33c0.508,0,0.985,0.197,1.343,0.556
	c0.359,0.359,0.556,0.836,0.556,1.343v4.75c0,0.507-0.197,0.984-0.556,1.343c-0.359,0.359-0.836,0.556-1.343,0.556H24.259V11.33
	H34.484z M20.762,9.091c0.127-1.222,0.526-3.46,1.771-4.726l0.078-0.075c0.617-0.589,1.362-0.876,2.275-0.876
	c2.011,0,2.911,1.471,2.911,2.93c0,0.803-0.272,1.579-0.747,2.129c-0.528,0.613-1.254,0.924-2.159,0.924l-4.157-0.033L20.762,9.091z
	 M22.327,11.33v24.889h-4.755V11.33H22.327z M12.276,4.299c0.518-0.588,1.256-0.887,2.192-0.887c0.943,0,1.702,0.307,2.319,0.939
	c1.234,1.268,1.609,3.535,1.723,4.773l0.025,0.273h-4.066c-2.297,0-2.91-1.92-2.91-3.054C11.559,5.55,11.813,4.824,12.276,4.299z
	 M4.071,19.323c-0.359-0.359-0.557-0.836-0.557-1.343v-4.75c0-0.507,0.198-0.984,0.557-1.343c0.358-0.358,0.834-0.556,1.341-0.556
	c0.001,0,0.001,0,0.002,0H15.64v8.549H5.414C4.906,19.879,4.429,19.682,4.071,19.323z"/>
</svg>
