<?xml version="1.0" encoding="utf-8"?>
<!-- Generator: Adobe Illustrator 21.0.0, SVG Export Plug-In . SVG Version: 6.00 Build 0)  -->
<svg version="1.0" id="图层_1" xmlns="http://www.w3.org/2000/svg" xmlns:xlink="http://www.w3.org/1999/xlink" x="0px" y="0px"
	 viewBox="0 0 46 40" enable-background="new 0 0 46 40" xml:space="preserve">
<g>
	<g>
		<path fill="#FF6560" d="M23.24,39.792c-11.813,0-21.424-9.61-21.424-21.423c0-4.337,1.177-7.416,3.499-9.151
			c4.106-3.07,10.517-1.175,14.759,0.079c1.256,0.371,2.442,0.722,2.922,0.722c0.426,0,1.552-0.319,2.745-0.657
			c4.176-1.184,11.168-3.166,15.443,0.065c2.308,1.745,3.478,4.754,3.478,8.943C44.663,30.182,35.053,39.792,23.24,39.792z"/>
	</g>
	<g>
		<path fill="#FFFFFF" d="M23.24,35.03c-3.8,0-6.892-2.8-6.892-6.243c0-3.442,3.092-6.242,6.892-6.242
			c3.799,0,6.891,2.8,6.891,6.242C30.131,32.23,27.04,35.03,23.24,35.03z"/>
	</g>
	<g>
		<path fill="#FFFFFF" d="M33.017,26.366c-2.201,0-3.992-2.091-3.992-4.661c0-2.57,1.791-4.661,3.992-4.661s3.992,2.091,3.992,4.661
			C37.01,24.275,35.219,26.366,33.017,26.366z"/>
	</g>
	<ellipse fill="#FF6560" cx="33.017" cy="21.705" rx="0.992" ry="1.208"/>
	<g>
		<path fill="#FFFFFF" d="M13.347,26.374c-2.2,0-3.991-2.091-3.991-4.661c0-2.57,1.791-4.661,3.991-4.661
			c2.201,0,3.992,2.091,3.992,4.661C17.339,24.283,15.549,26.374,13.347,26.374z"/>
	</g>
	<path fill="#FF6560" d="M22.54,28.626l-1.09-0.511c-0.682-0.32-0.454-1.342,0.299-1.342h2.982c0.753,0,0.981,1.023,0.299,1.342
		l-1.09,0.511C23.496,28.834,22.983,28.834,22.54,28.626z"/>
	<path fill="#FF6560" d="M15.084,22.069c0-0.004-0.001-0.007-0.001-0.011c0-0.001,0.001-0.002,0.001-0.003
		c0-0.004-0.002-0.007-0.002-0.011c-0.015-0.882-0.803-1.595-1.774-1.595c-0.98,0-1.777,0.727-1.777,1.62h0.004
		c0,0.008-0.004,0.014-0.004,0.022c0,0.276,0.224,0.5,0.5,0.5c0.276,0,0.5-0.224,0.5-0.5c0-0.008-0.004-0.014-0.004-0.022h0.004
		c0-0.342,0.349-0.62,0.777-0.62s0.777,0.278,0.777,0.62h0.002c0.008,0.269,0.226,0.486,0.497,0.486
		c0.271,0,0.489-0.217,0.497-0.486H15.084z"/>
	<path fill="#FF6560" d="M2.784,10.492c0.528-0.92,1.186-1.693,1.99-2.294c2.32-1.734,5.376-1.883,8.361-1.459
		c0.001-0.347-0.016-0.696-0.069-1.047c-0.522-3.467-3.537-5.901-6.726-5.42C3.151,0.75,0.981,3.96,1.501,7.428
		C1.67,8.554,2.122,9.611,2.784,10.492z"/>
	<path fill="#FF6560" d="M43.619,10.617c-0.528-0.92-1.186-1.693-1.99-2.294c-2.32-1.734-5.376-1.883-8.361-1.459
		c-0.001-0.347,0.016-0.696,0.069-1.047c0.522-3.467,3.537-5.901,6.726-5.42c3.188,0.479,5.358,3.689,4.839,7.156
		C44.733,8.679,44.28,9.736,43.619,10.617z"/>
</g>
<path fill="#FF6560" d="M27.059,30.526c0-0.322-0.261-0.582-0.582-0.582c-0.261,0-0.473,0.174-0.547,0.41l-0.009-0.004
	c-0.39,0.826-1.276,1.36-2.257,1.36c-0.468,0-0.922-0.121-1.315-0.35l-0.005,0.009c-0.1-0.081-0.222-0.136-0.36-0.136
	c-0.321,0-0.582,0.261-0.582,0.582c0,0.246,0.154,0.454,0.369,0.539l-0.005,0.009c0.57,0.332,1.226,0.507,1.899,0.507
	c1.427,0,2.725-0.795,3.307-2.025l-0.015-0.007C27.016,30.748,27.059,30.644,27.059,30.526z"/>
</svg>
