<?xml version="1.0" encoding="utf-8"?>
<!-- Generator: Adobe Illustrator 21.0.0, SVG Export Plug-In . SVG Version: 6.00 Build 0)  -->
<svg version="1.0" id="图层_1" xmlns="http://www.w3.org/2000/svg" xmlns:xlink="http://www.w3.org/1999/xlink" x="0px" y="0px"
	 viewBox="0 0 46 40" enable-background="new 0 0 46 40" xml:space="preserve">
<g>
	<g>
		<path fill="#585858" d="M23,39.792c-11.813,0-21.424-9.61-21.424-21.423c0-4.337,1.177-7.416,3.499-9.151
			c4.106-3.07,10.517-1.175,14.759,0.079c1.256,0.371,2.442,0.722,2.922,0.722c0.426,0,1.552-0.319,2.745-0.657
			c4.176-1.184,11.168-3.166,15.443,0.065c2.308,1.745,3.478,4.754,3.478,8.943C44.423,30.181,34.813,39.792,23,39.792z
			 M10.809,9.505c-1.72,0-3.321,0.34-4.569,1.272c-1.804,1.347-2.718,3.902-2.718,7.592c0,10.74,8.738,19.477,19.478,19.477
			c10.74,0,19.477-8.737,19.477-19.477c0-3.547-0.91-6.033-2.706-7.391c-3.502-2.647-9.911-0.832-13.739,0.254
			c-1.498,0.425-2.58,0.732-3.276,0.732c-0.762,0-1.899-0.336-3.473-0.801C16.865,10.448,13.674,9.505,10.809,9.505z"/>
	</g>
	<g>
		<path fill="#585858" d="M23,35.029c-3.8,0-6.892-2.8-6.892-6.243c0-3.442,3.092-6.242,6.892-6.242c3.799,0,6.891,2.8,6.891,6.242
			C29.891,32.229,26.799,35.029,23,35.029z M23,24.489c-2.728,0-4.946,1.928-4.946,4.297c0,2.369,2.218,4.297,4.946,4.297
			c2.727,0,4.945-1.928,4.945-4.297C27.945,26.417,25.727,24.489,23,24.489z"/>
	</g>
	<g>
		<path fill="#585858" d="M32.777,26.365c-2.201,0-3.992-2.091-3.992-4.661c0-2.57,1.791-4.661,3.992-4.661s3.992,2.091,3.992,4.661
			C36.769,24.274,34.978,26.365,32.777,26.365z M32.777,18.865c-1.196,0-2.17,1.274-2.17,2.839c0,1.565,0.974,2.839,2.17,2.839
			c1.196,0,2.17-1.274,2.17-2.839C34.947,20.138,33.973,18.865,32.777,18.865z"/>
	</g>
	<ellipse fill="#585858" cx="32.777" cy="21.704" rx="0.992" ry="1.208"/>
	<g>
		<path fill="#585858" d="M13.107,26.373c-2.2,0-3.991-2.091-3.991-4.661c0-2.57,1.791-4.661,3.991-4.661
			c2.201,0,3.992,2.091,3.992,4.661C17.099,24.282,15.308,26.373,13.107,26.373z M13.107,18.873c-1.196,0-2.169,1.274-2.169,2.839
			c0,1.566,0.973,2.839,2.169,2.839s2.17-1.274,2.17-2.839C15.277,20.147,14.303,18.873,13.107,18.873z"/>
	</g>
	<path fill="#585858" d="M22.299,28.625l-1.09-0.511c-0.682-0.32-0.454-1.342,0.299-1.342h2.982c0.753,0,0.981,1.023,0.299,1.342
		l-1.09,0.511C23.256,28.833,22.743,28.833,22.299,28.625z"/>
	<g>
		<path fill="#585858" d="M3.753,11.723c-1.325-1.01-2.234-2.576-2.492-4.296C0.741,3.96,2.911,0.749,6.099,0.27
			c3.189-0.481,6.205,1.953,6.726,5.42c0.141,0.941,0.09,1.873-0.149,2.769l-2.027-0.542c0.165-0.618,0.2-1.263,0.102-1.917
			c-0.35-2.322-2.299-3.967-4.34-3.656c-2.045,0.307-3.424,2.447-3.075,4.77c0.178,1.186,0.793,2.257,1.688,2.939L3.753,11.723z"/>
	</g>
	<g>
		<path fill="#585858" d="M42.007,11.723l-1.271-1.668c0.894-0.682,1.51-1.753,1.687-2.939c0.172-1.145-0.065-2.276-0.669-3.186
			c-0.58-0.876-1.436-1.439-2.406-1.585c-0.977-0.147-1.953,0.142-2.766,0.809c-0.844,0.692-1.402,1.704-1.574,2.849
			C34.91,6.656,34.944,7.3,35.109,7.918L33.082,8.46c-0.239-0.898-0.29-1.83-0.148-2.77c0.249-1.659,1.073-3.137,2.319-4.159
			C36.531,0.483,38.1,0.039,39.66,0.27c1.565,0.236,2.929,1.123,3.842,2.5c0.891,1.343,1.245,2.997,0.996,4.657
			C44.236,9.173,43.351,10.698,42.007,11.723z"/>
	</g>
	<path fill="#585858" d="M14.843,22.068c0-0.004-0.001-0.007-0.001-0.011c0-0.001,0.001-0.002,0.001-0.003
		c0-0.004-0.002-0.007-0.002-0.011c-0.015-0.882-0.803-1.595-1.774-1.595c-0.98,0-1.777,0.727-1.777,1.62h0.004
		c0,0.008-0.004,0.014-0.004,0.022c0,0.276,0.224,0.5,0.5,0.5c0.276,0,0.5-0.224,0.5-0.5c0-0.008-0.004-0.014-0.004-0.022h0.004
		c0-0.342,0.349-0.62,0.777-0.62s0.777,0.278,0.777,0.62h0.002c0.008,0.269,0.226,0.486,0.497,0.486
		c0.271,0,0.489-0.217,0.497-0.486H14.843z"/>
</g>
<path fill="#585858" d="M26.448,29.795c0-0.322-0.261-0.582-0.582-0.582c-0.261,0-0.473,0.174-0.547,0.41l-0.009-0.004
	c-0.39,0.826-1.276,1.36-2.257,1.36c-0.468,0-0.922-0.121-1.315-0.35l-0.005,0.009c-0.1-0.081-0.222-0.136-0.36-0.136
	c-0.321,0-0.582,0.261-0.582,0.582c0,0.246,0.154,0.454,0.369,0.539l-0.005,0.009c0.57,0.332,1.226,0.507,1.899,0.507
	c1.427,0,2.725-0.795,3.307-2.025l-0.015-0.007C26.404,30.016,26.448,29.913,26.448,29.795z"/>
</svg>
