<?xml version="1.0" encoding="utf-8"?>
<!-- Generator: Adobe Illustrator 21.0.0, SVG Export Plug-In . SVG Version: 6.00 Build 0)  -->
<svg version="1.0" id="图层_1" xmlns="http://www.w3.org/2000/svg" xmlns:xlink="http://www.w3.org/1999/xlink" x="0px" y="0px"
	 viewBox="0 0 40 40" enable-background="new 0 0 40 40" xml:space="preserve">
<path fill="#FC6760" d="M26.898,13.805H12.753c-1.1,0-1.996-0.895-1.996-1.995V6.557c0-1.1,0.895-1.995,1.996-1.995h2.413
	c0.313-2.292,2.283-4.063,4.66-4.063c2.376,0,4.347,1.771,4.66,4.063h2.413c1.1,0,1.995,0.895,1.995,1.995v5.253
	C28.893,12.91,27.998,13.805,26.898,13.805z M12.753,6.493c-0.035,0-0.064,0.029-0.064,0.064v5.253c0,0.035,0.029,0.064,0.064,0.064
	h14.145c0.035,0,0.064-0.029,0.064-0.064V6.557c0-0.035-0.029-0.064-0.064-0.064h-4.403l0.091-1.049
	c0.008-0.089,0.011-0.169,0.011-0.243c0-1.528-1.243-2.771-2.771-2.771c-1.528,0-2.771,1.243-2.771,2.771
	c0,0.074,0.004,0.153,0.011,0.243l0.091,1.049L12.753,6.493L12.753,6.493z M11.623,30.822H27.98v1.932H11.623
	C11.623,32.754,11.623,30.822,11.623,30.822z M11.623,24.665H27.98v1.932H11.623C11.623,26.597,11.623,24.665,11.623,24.665z
	 M11.623,18.508H27.98v1.932H11.623C11.623,20.439,11.623,18.508,11.623,18.508z M32.307,39.234H7.241
	c-1.335,0-2.422-1.086-2.422-2.422l0-26.146c0-1.335,1.086-2.422,2.422-2.422h3.434V6.578c0-1.104,0.898-2.002,2.002-2.002h2.421
	c0.314-2.3,2.291-4.077,4.676-4.077c2.384,0,4.362,1.778,4.676,4.077h2.421c1.104,0,2.002,0.898,2.002,2.002v1.666h3.434
	c1.335,0,2.422,1.086,2.422,2.422v26.146C34.728,38.147,33.642,39.234,32.307,39.234z M7.241,10.182
	c-0.267,0-0.483,0.217-0.483,0.483v26.146c0,0.267,0.217,0.483,0.483,0.483h25.065c0.267,0,0.484-0.217,0.484-0.483V10.666
	c0-0.267-0.217-0.483-0.484-0.483h-5.372V6.578c0-0.035-0.029-0.064-0.064-0.064h-4.419l0.091-1.053
	c0.008-0.089,0.011-0.169,0.011-0.243c0-1.533-1.248-2.781-2.781-2.781c-1.533,0-2.781,1.247-2.781,2.781
	c0,0.074,0.004,0.154,0.011,0.243l0.091,1.053h-4.419c-0.035,0-0.064,0.029-0.064,0.064v3.605L7.241,10.182L7.241,10.182z"/>
</svg>
