<?xml version="1.0" encoding="utf-8"?>
<!-- Generator: Adobe Illustrator 21.0.0, SVG Export Plug-In . SVG Version: 6.00 Build 0)  -->
<svg version="1.1" id="图层_1" xmlns="http://www.w3.org/2000/svg" xmlns:xlink="http://www.w3.org/1999/xlink" x="0px" y="0px"
	 viewBox="0 0 40 40" style="enable-background:new 0 0 40 40;" xml:space="preserve">
<style type="text/css">
	.st0{fill:#FC6760;}
</style>
<path class="st0" d="M9.2,9.4h3.1v3.1H9.2V9.4z M33.9,34.1H37v3.1h-3.1V34.1z M34.5,28.5h-3.7v-6.8h-9.3v15.5h2.5v-13h4.2V31H37
	v-9.3h-2.5V28.5z"/>
<path class="st0" d="M28.3,34.1h3.1v3.1h-3.1V34.1z M3,18.7h15.5V3.2H3V18.7L3,18.7z M5.2,5.4h11v11h-11V5.4z M9.2,27.9h3.1V31H9.2
	V27.9z"/>
<path class="st0" d="M3,37.2h15.5V21.8H3V37.2L3,37.2z M5.2,24h11v11h-11V24z M27.7,9.4h3.1v3.1h-3.1V9.4z"/>
<path class="st0" d="M21.5,3.2v15.5H37V3.2H21.5L21.5,3.2z M34.8,16.4h-11v-11h11v10.1L34.8,16.4z"/>
</svg>
