<?xml version="1.0" encoding="utf-8"?>
<!-- Generator: Adobe Illustrator 21.0.0, SVG Export Plug-In . SVG Version: 6.00 Build 0)  -->
<svg version="1.1" id="图层_1" xmlns="http://www.w3.org/2000/svg" xmlns:xlink="http://www.w3.org/1999/xlink" x="0px" y="0px"
	 viewBox="0 0 40 40" style="enable-background:new 0 0 40 40;" xml:space="preserve">
<style type="text/css">
	.st0{fill:#FC6760;}
</style>
<path class="st0" d="M24,23.8h-2.8V21c0-0.6-0.6-1.1-1.1-1.1s-1.1,0.6-1.1,1.1v2.8H16c-0.6,0-1.1,0.6-1.1,1.1s0.6,1.1,1.1,1.1h2.8
	V29c0,0.6,0.6,1.1,1.1,1.1s1.1-0.6,1.1-1.1v-2.8H24c0.6,0,1.1-0.6,1.1-1.1S24.6,23.8,24,23.8z"/>
<path class="st0" d="M36.9,13.9h-0.8V9.9c0-1.1-1-2-2.1-2h-1.8V6.1c0-1.2-1-2.1-2.1-2.1H6.1c-1.2,0-2.1,1-2.1,2.1v5.8H3.1
	c-0.7,0-1.1,0.5-1.1,1.1v21.9c0,0.7,0.5,1.1,1.1,1.1h33.9c0.7,0,1.1-0.5,1.1-1.1V15C38.1,14.3,37.6,13.9,36.9,13.9z M6.2,11.9V6.2
	h23.6v1.7H10c-1.2,0-2.1,0.9-2.1,2v1.9H6.2z M33.8,13.9H18.5c-0.3,0-0.6-0.1-0.8-0.2l-3.2-1.6c-0.3-0.1-0.6-0.2-0.9-0.2h-3.3v-1.7
	h23.6V13.9z M35.8,16.2v17.6H4.2V14.2h9.3l3.2,1.6c0.6,0.3,1.2,0.4,1.9,0.4H35.8z"/>
</svg>
