<?xml version="1.0" encoding="utf-8"?>
<!-- Generator: Adobe Illustrator 21.0.0, SVG Export Plug-In . SVG Version: 6.00 Build 0)  -->
<svg version="1.1" id="图层_1" xmlns="http://www.w3.org/2000/svg" xmlns:xlink="http://www.w3.org/1999/xlink" x="0px" y="0px"
	 viewBox="0 0 40 40" style="enable-background:new 0 0 40 40;" xml:space="preserve">
<style type="text/css">
	.st0{fill:#FF6666;}
</style>
<path class="st0" d="M24.5,33.4c0,3.3,2.7,6,6,6s6-2.7,6-6s-2.7-6-6-6c-1.6,0-3.1,0.6-4.2,1.7L26,29.4l-5.5-4.5l0.2-0.3
	c0.7-1.3,1-2.7,1-4.1c0-1.3-0.3-2.6-0.8-3.8l-0.1-0.3l4-3.7l0.3,0.3c1.3,1.1,2.9,1.6,4.5,1.6c3.9,0,7-3.1,7-7s-3.1-7-7-7s-7,3.1-7,7
	c0,1.1,0.3,2.2,0.7,3.1l0.2,0.3l-3.9,3.6l-0.3-0.3c-1.7-1.8-4-2.8-6.5-2.8c-4.9,0-9,4-9,9s4,9,9,9c2.4,0,4.7-0.9,6.4-2.6l0.3-0.3
	l5.7,4.6l-0.1,0.3C24.6,32,24.5,32.7,24.5,33.4z M30.5,29.4c2.2,0,3.9,1.8,3.9,3.9s-1.8,3.9-3.9,3.9s-3.9-1.8-3.9-3.9
	S28.3,29.4,30.5,29.4z M29.5,2.7c2.7,0,4.9,2.2,4.9,4.9s-2.2,4.9-4.9,4.9s-4.9-2.2-4.9-4.9S26.8,2.7,29.5,2.7z M12.6,27.4
	c-3.8,0-6.9-3.1-6.9-6.9c0-3.8,3.1-6.9,6.9-6.9c3.8,0,6.9,3.1,6.9,6.9C19.5,24.3,16.4,27.4,12.6,27.4z"/>
</svg>
