<?xml version="1.0" encoding="utf-8"?>
<!-- Generator: Adobe Illustrator 21.0.0, SVG Export Plug-In . SVG Version: 6.00 Build 0)  -->
<svg version="1.1" id="图层_1" xmlns="http://www.w3.org/2000/svg" xmlns:xlink="http://www.w3.org/1999/xlink" x="0px" y="0px"
	 viewBox="0 0 40 40" style="enable-background:new 0 0 40 40;" xml:space="preserve">
<style type="text/css">
	.st0{fill:#FC6760;}
</style>
<g>
	<path class="st0" d="M34.8,24.2L34.8,24.2c-0.7,0-1.2,0.5-1.2,1.2v8.8c0,0.5-0.4,0.9-0.9,0.9H7.4c-0.5,0-0.9-0.4-0.9-0.9v-8.8
		c0-0.7-0.5-1.2-1.2-1.2l0,0c-0.7,0-1.2,0.5-1.2,1.2v8.8c0,1.8,1.5,3.3,3.3,3.3h25.3c1.8,0,3.3-1.5,3.3-3.3v-8.8
		C36,24.7,35.4,24.2,34.8,24.2z"/>
	<path class="st0" d="M38.4,14.7c0-0.3-0.3-0.9-0.6-1.4c0,0-4.9-8.9-5-9c-0.2-0.3-0.7-1-1.7-1H8.6C8,3.3,7.3,3.7,6.9,4.2
		c0,0-4.8,8.6-4.9,8.8c0,0,0,0.1,0,0.1c-1.6,5.2,2.5,9.4,6.6,9.6c2.5,0,4.8-1.3,6-3.3c1.3,2,3.5,3.3,6,3.3c2.5,0,4.7-1.4,6-3.4
		c1.2,2.1,3.3,3.4,5.9,3.4c1.9,0,3.5-0.8,4.6-2.7C37.9,18.6,38.7,17.3,38.4,14.7z M35.4,18.8c-0.7,1.1-1.8,1.5-2.8,1.5
		c-2.4,0-4.2-1.7-4.5-4c0-0.4-0.4-0.9-0.9-0.9h-0.7c0,0,0,0-0.1,0h-0.3c-0.4,0-0.7,0.3-0.7,0.9c0,2.5-2.3,4.1-4.8,4.1
		c-2.5,0-4.5-1.9-4.7-4.4c0-0.3-0.3-0.6-0.6-0.6h-0.4c-0.2,0-0.4,0-0.6,0H14c-0.4,0-0.7,0.3-0.7,0.7c-0.2,2.4-2.3,4.2-4.7,4.2
		c-2.7,0-5.3-3.8-4.4-6.3l0,0c0.1-0.1,0.1-0.3,0.2-0.4l4.4-7.8h22.2c0,0,0,0,0,0.1l4.8,8.3c0.2,0.2,0.4,0.9,0.4,0.9c0,0,0,0.1,0,0.1
		C36.5,16.5,35.8,18.2,35.4,18.8z"/>
	<path class="st0" d="M30.2,13.4H9.9c-0.5,0-1-0.4-1-1v-0.2c0-0.5,0.4-1,1-1h20.3c0.5,0,1,0.4,1,1v0.2
		C31.2,12.9,30.7,13.4,30.2,13.4z"/>
</g>
</svg>
