<?xml version="1.0" encoding="utf-8"?>
<!-- Generator: Adobe Illustrator 21.0.0, SVG Export Plug-In . SVG Version: 6.00 Build 0)  -->
<svg version="1.0" id="图层_1" xmlns="http://www.w3.org/2000/svg" xmlns:xlink="http://www.w3.org/1999/xlink" x="0px" y="0px"
	 viewBox="0 0 46 40" enable-background="new 0 0 46 40" xml:space="preserve">
<g>
	<path fill="#FF6560" d="M34.903,33.622H11.364c-0.655,0-1.191-0.536-1.191-1.191v-0.1c0-0.655,0.536-1.191,1.191-1.191h23.539
		c0.655,0,1.191,0.536,1.191,1.191v0.1C36.095,33.086,35.559,33.622,34.903,33.622z"/>
	<path fill="#FF6560" d="M42.727,7.924c0-2.092-3.071-2.005-3.071,0v27.196c0,0.697-0.564,1.261-1.261,1.261H10.756
		c-1.831-0.005-3.964-1.477-3.964-4.046c0-2.189,1.507-4.046,3.287-4.046h25.186c0.846,0,1.533-0.687,1.533-1.533V1.986
		c0-0.846-0.682-1.538-1.533-1.538c0,0,0,0-0.005,0l0,0h-0.005H12.961c-5.092,0-9.235,4.143-9.235,9.235v22.73
		c0,0.226,0.169,1.477,0.174,1.523c0.651,3.153,3.169,5.512,6.184,5.512h28.314c2.389-0.005,4.328-1.938,4.333-4.333V7.924H42.727z"
		/>
</g>
</svg>
