<?xml version="1.0" encoding="utf-8"?>
<!-- Generator: Adobe Illustrator 21.0.0, SVG Export Plug-In . SVG Version: 6.00 Build 0)  -->
<svg version="1.0" id="图层_1" xmlns="http://www.w3.org/2000/svg" xmlns:xlink="http://www.w3.org/1999/xlink" x="0px" y="0px"
	 viewBox="0 0 46 40" enable-background="new 0 0 46 40" xml:space="preserve">
<g>
	<path fill="#585858" d="M3.65,9.492V32.83c0,0.412,0.036,0.816,0.107,1.2c0.549,3.19,3.027,5.502,5.895,5.502h29.07
		c2.161-0.004,3.923-1.766,3.928-3.929V7.686c0-0.78-0.564-1.058-1.047-1.058c-0.394,0-1.06,0.222-1.06,1.053v27.928
		c0,1.001-0.815,1.815-1.815,1.815H10.352c-2.257-0.006-4.59-1.756-4.59-4.674c0-2.531,1.784-4.669,3.895-4.669h25.859
		c0.581,0,1.054-0.473,1.054-1.054V1.59c0-0.584-0.473-1.059-1.054-1.059H12.61C7.669,0.532,3.65,4.552,3.65,9.492z M34.457,25.969
		h-24.8c-1.106,0.005-2.172,0.337-3.079,0.961l-0.816,0.561V9.492C5.768,5.721,8.84,2.649,12.61,2.644h21.847V25.969z"/>
	<path fill="#585858" d="M35.147,33.964H11.279c-0.561,0-1.021-0.459-1.021-1.021v-0.084c0-0.561,0.459-1.021,1.021-1.021h23.867
		c0.561,0,1.021,0.459,1.021,1.021v0.084C36.168,33.505,35.708,33.964,35.147,33.964z"/>
</g>
</svg>
