<?xml version="1.0" encoding="utf-8"?>
<!-- Generator: Adobe Illustrator 21.0.0, SVG Export Plug-In . SVG Version: 6.00 Build 0)  -->
<svg version="1.0" id="图层_1" xmlns="http://www.w3.org/2000/svg" xmlns:xlink="http://www.w3.org/1999/xlink" x="0px" y="0px"
	 viewBox="0 0 46 40" enable-background="new 0 0 46 40" xml:space="preserve">
<path fill="#585858" d="M39.247,6.105h-3.023V4.136c0-2.062-1.777-3.739-3.961-3.739H13.986c-2.184,0-3.961,1.677-3.961,3.739v1.968
	H7.002c-3.334,0-6.046,2.56-6.046,5.707V33.69c0,3.147,2.712,5.707,6.046,5.707h32.245c3.334,0,6.046-2.56,6.046-5.707V11.812
	C45.293,8.665,42.581,6.105,39.247,6.105z M12.041,4.136c0-1.013,0.873-1.836,1.945-1.836h18.277c1.073,0,1.945,0.824,1.945,1.836
	v1.968H12.041V4.136z M7.002,8.007h32.245c2.222,0,4.031,1.707,4.031,3.805v3.802H2.972v-3.802C2.972,9.714,4.78,8.007,7.002,8.007z
	 M27.639,17.517c-0.108,2.271-2.083,4.091-4.514,4.091s-4.406-1.82-4.514-4.091H27.639z M39.247,37.495H7.002
	c-2.222,0-4.031-1.707-4.031-3.805V17.517h13.613c0.108,3.321,2.996,5.993,6.54,5.993s6.432-2.672,6.539-5.993h13.613V33.69
	C43.278,35.788,41.47,37.495,39.247,37.495z"/>
</svg>
