<?xml version="1.0" encoding="utf-8"?>
<!-- Generator: Adobe Illustrator 21.0.0, SVG Export Plug-In . SVG Version: 6.00 Build 0)  -->
<svg version="1.0" id="图层_1" xmlns="http://www.w3.org/2000/svg" xmlns:xlink="http://www.w3.org/1999/xlink" x="0px" y="0px"
	 viewBox="0 0 46 40" enable-background="new 0 0 46 40" xml:space="preserve">
<g>
	<path fill="#F06361" d="M23.167,22.152c2.79,0,5.052-2.262,5.052-5.052H18.115C18.115,19.89,20.377,22.152,23.167,22.152z"/>
	<path fill="#F06361" d="M40.29,6.302h-4.029V4.218c0-2.183-1.776-3.959-3.959-3.959H14.033c-2.183,0-3.959,1.776-3.959,3.959v2.084
		H6.045c-2.77,0-5.036,2.266-5.036,5.036v4.029h44.317v-4.029C45.326,8.568,43.059,6.302,40.29,6.302z M12.088,4.218
		c0-1.072,0.872-1.945,1.945-1.945h18.269c1.072,0,1.945,0.872,1.945,1.945v2.084H12.088V4.218z"/>
	<path fill="#F06361" d="M23.167,24.025c-3.824,0-6.924-3.1-6.924-6.924H1.009v17.122c0,2.77,2.266,5.036,5.036,5.036H40.29
		c2.77,0,5.036-2.266,5.036-5.036V17.1H30.092C30.092,20.925,26.992,24.025,23.167,24.025z"/>
</g>
</svg>
