<?xml version="1.0" standalone="no"?><!DOCTYPE svg PUBLIC "-//W3C//DTD SVG 1.1//EN" "http://www.w3.org/Graphics/SVG/1.1/DTD/svg11.dtd"><svg class="icon" width="200px" height="200.00px" viewBox="0 0 1024 1024" version="1.1" xmlns="http://www.w3.org/2000/svg"><path fill="#ffffff" d="M910.6432 358.4H114.824533a38.775467 38.775467 0 1 0 0 76.8h795.818667a38.775467 38.775467 0 0 0 0-76.8zM742.4 128a51.2 51.2 0 0 0-51.2-51.2H332.8a51.2 51.2 0 0 0-51.2 51.2v25.6h460.8v-25.6zM384 768h87.790933v89.224533a38.775467 38.775467 0 1 0 76.8 0V768h91.409067a38.775467 38.775467 0 0 0 0-76.8h-89.975467v-89.975467a38.775467 38.775467 0 0 0-76.8 0v89.224534H384a38.775467 38.775467 0 1 0 0 76.8v0.750933zM921.6 1024H102.4a102.4 102.4 0 0 1-102.4-102.4V256a102.4 102.4 0 0 1 102.4-102.4h102.4V102.4a102.4 102.4 0 0 1 102.4-102.4h409.6a102.4 102.4 0 0 1 102.4 102.4v51.2h102.4a102.4 102.4 0 0 1 102.4 102.4V921.6a102.4 102.4 0 0 1-102.4 102.4z m0 0" /></svg>